<svg xmlns="http://www.w3.org/2000/svg" viewBox="0 0 160 160">
  <!-- Circle background -->
  <circle cx="80" cy="80" r="70" fill="#a29bfe" fill-opacity="0.7" />
  
  <!-- Pokémon name -->
  <text x="80" y="25" font-family="Arial" font-size="14" font-weight="bold" text-anchor="middle" fill="#333">GENGAR</text>
  
  <!-- Gengar body -->
  <path d="M80,110 C40,110 35,65 80,55 C125,65 120,110 80,110 Z" fill="#663399"/>
  <!-- Eyes -->
  <ellipse cx="65" cy="72" rx="10" ry="13" fill="#fff"/>
  <ellipse cx="95" cy="72" rx="10" ry="13" fill="#fff"/>
  <circle cx="65" cy="72" r="5" fill="#FF0000"/>
  <circle cx="95" cy="72" r="5" fill="#FF0000"/>
  <circle cx="65" cy="72" r="2" fill="#000"/>
  <circle cx="95" cy="72" r="2" fill="#000"/>
  <!-- Mouth -->
  <path d="M60,90 C70,100 90,100 100,90" stroke="#fff" stroke-width="2" fill="none"/>
  <!-- Spikes -->
  <path d="M50,60 L52,55 L55,60" stroke="#663399" stroke-width="5" fill="none"/>
  <path d="M70,55 L72,45 L74,55" stroke="#663399" stroke-width="5" fill="none"/>
  <path d="M86,55 L88,45 L90,55" stroke="#663399" stroke-width="5" fill="none"/>
  <path d="M105,60 L108,55 L110,60" stroke="#663399" stroke-width="5" fill="none"/>
  <!-- Shadow beneath -->
  <ellipse cx="80" cy="110" rx="30" ry="5" fill="#000" fill-opacity="0.3"/>
  
  <!-- Label -->
  <text x="80" y="130" font-family="Arial" font-size="12" font-weight="bold" text-anchor="middle" fill="#333">The Shadow Self</text>
</svg>
