<svg xmlns="http://www.w3.org/2000/svg" viewBox="0 0 160 160">
  <!-- Background -->
  <circle cx="80" cy="80" r="70" fill="#fab1a0" fill-opacity="0.7" />
  
  <!-- Pokémon name -->
  <text x="80" y="25" font-family="Arial" font-size="14" font-weight="bold" text-anchor="middle" fill="#333">PSYDUCK</text>
  
  <!-- Psyduck body -->
  <ellipse cx="80" cy="90" rx="30" ry="35" fill="#FFD54F"/>
  <!-- Head -->
  <ellipse cx="80" cy="60" rx="25" ry="30" fill="#FFD54F"/>
  <!-- Bill -->
  <path d="M80,65 L95,75 L80,80 L65,75 Z" fill="#FFB74D"/>
  <!-- Eyes -->
  <ellipse cx="70" cy="55" rx="4" ry="6" fill="#fff"/>
  <ellipse cx="90" cy="55" rx="4" ry="6" fill="#fff"/>
  <circle cx="70" cy="55" r="2" fill="#000"/>
  <circle cx="90" cy="55" r="2" fill="#000"/>
  <!-- Hands on head -->
  <ellipse cx="55" cy="60" rx="10" ry="7" fill="#FFD54F" transform="rotate(-20)"/>
  <ellipse cx="105" cy="60" rx="10" ry="7" fill="#FFD54F" transform="rotate(20)"/>
  <!-- Swirl above head -->
  <path d="M80,30 C86,30 92,33 92,40 C92,47 80,47 80,54 C80,61 92,61 92,68" stroke="#5D4037" stroke-width="2" fill="none"/>
  
  <!-- Label -->
  <text x="80" y="130" font-family="Arial" font-size="12" font-weight="bold" text-anchor="middle" fill="#333">Anxiety Disorder</text>
</svg>
